<svg xmlns="http://www.w3.org/2000/svg" xmlns:xlink="http://www.w3.org/1999/xlink" viewBox="0 0 392.57 53.21"><defs><style>.cls-1{fill:#1a4366;}.cls-2{stroke:#21409a;stroke-miterlimit:10;stroke-width:0.25px;isolation:isolate;opacity:0.47;fill:url(#linear-gradient);}</style><linearGradient id="linear-gradient" x1="0.25" y1="21.7" x2="93.56" y2="21.7" gradientUnits="userSpaceOnUse"><stop offset="0" stop-color="#2484c6"/><stop offset="0.65" stop-color="#084260" stop-opacity="0.2"/></linearGradient></defs><g id="Layer_2" data-name="Layer 2"><g id="Layer_1-2" data-name="Layer 1"><path class="cls-1" d="M43.23,34.77c0-.66,0-1.25,0-1.74s0-.93-.07-1.29-.07-.67-.11-.91-.09-.44-.13-.61v0h1.56c.28,0,.66,0,1.14-.08A15.55,15.55,0,0,1,47.45,30a6.64,6.64,0,0,1,1.94.28,4.67,4.67,0,0,1,1.54.79,3.5,3.5,0,0,1,1,1.27,3.84,3.84,0,0,1,.37,1.72,4.37,4.37,0,0,1-.22,1.45,3.56,3.56,0,0,1-.63,1.11,3.61,3.61,0,0,1-1,.8,6.06,6.06,0,0,1-1.25.51,7.27,7.27,0,0,1,1.82.51,5.05,5.05,0,0,1,1.41.89,3.77,3.77,0,0,1,.91,1.26,3.82,3.82,0,0,1,.33,1.6,4.37,4.37,0,0,1-1.63,3.71,8,8,0,0,1-4.88,1.24l-.82,0-1-.07-1-.06-.82,0h-.77v0c0-.16.09-.36.13-.61s.08-.54.11-.9.06-.79.07-1.28,0-1.08,0-1.74Zm2.13,3a4.27,4.27,0,0,0,.59,0h.55A4.45,4.45,0,0,0,48,37.61a3,3,0,0,0,1.12-.68,3.13,3.13,0,0,0,.72-1.15,4.55,4.55,0,0,0,.26-1.6,5,5,0,0,0-.19-1.38,3,3,0,0,0-.56-1.06,2.35,2.35,0,0,0-.91-.67,2.93,2.93,0,0,0-1.23-.24,6.14,6.14,0,0,0-.78,0,5.35,5.35,0,0,0-.56.08,2.18,2.18,0,0,0-.46.12Zm2.17.88a12.51,12.51,0,0,0-1.34.06c-.36,0-.64.08-.83.12V42.4c0,.91,0,1.67,0,2.26a14.1,14.1,0,0,0,.13,1.45l.89.11c.29,0,.53.05.71.05a4.52,4.52,0,0,0,3.21-1,4.05,4.05,0,0,0,1-3,4.26,4.26,0,0,0-.24-1.46,3.07,3.07,0,0,0-1.91-1.88A4.77,4.77,0,0,0,47.53,38.67Z"/><path class="cls-1" d="M56.48,39.56q0-1,0-1.74c0-.49,0-.92-.07-1.28s-.06-.66-.1-.9-.09-.45-.14-.61V35h2.71V35a4.12,4.12,0,0,0-.16.65,9.56,9.56,0,0,0-.1,1l.9-.72a9.19,9.19,0,0,1,1-.62,5.89,5.89,0,0,1,1-.43,3.29,3.29,0,0,1,1-.16l.55,0a2.2,2.2,0,0,1,.42.09,2.27,2.27,0,0,1,.34.11l.3.13-.58,2.24-.2-.05a1.56,1.56,0,0,0-.52-.83,1.69,1.69,0,0,0-1.06-.31,2.34,2.34,0,0,0-.76.13,4.78,4.78,0,0,0-.81.36,7.57,7.57,0,0,0-.82.53c-.27.19-.54.4-.8.62,0,.23,0,.48,0,.74V42.4c0,.66,0,1.24,0,1.74s0,.92.07,1.28.07.66.11.9a4.5,4.5,0,0,0,.13.61v0H56.14v0c0-.16.09-.36.14-.61s.07-.54.1-.9,0-.79.07-1.28,0-1.08,0-1.74Z"/><path class="cls-1" d="M64.91,41a6,6,0,0,1,3.88-5.72,6.75,6.75,0,0,1,2.51-.47,7.1,7.1,0,0,1,2.5.44,6.12,6.12,0,0,1,2,1.25,5.65,5.65,0,0,1,1.36,2,6.38,6.38,0,0,1,.5,2.6,6.53,6.53,0,0,1-.42,2.32,5.87,5.87,0,0,1-1.24,2,6.1,6.1,0,0,1-2,1.36,7.47,7.47,0,0,1-5.21.08,6.26,6.26,0,0,1-2-1.24,5.91,5.91,0,0,1-1.37-2A6.33,6.33,0,0,1,64.91,41Zm6.64,5.38A3.5,3.5,0,0,0,73.08,46a3.35,3.35,0,0,0,1.2-.95,4.61,4.61,0,0,0,.79-1.51,7,7,0,0,0,.28-2,9.71,9.71,0,0,0-.27-2.35,5.9,5.9,0,0,0-.8-1.87,3.9,3.9,0,0,0-1.35-1.24,3.79,3.79,0,0,0-1.88-.45,3.5,3.5,0,0,0-1.53.33,3.36,3.36,0,0,0-1.2.93,4.31,4.31,0,0,0-.79,1.49,6.55,6.55,0,0,0-.28,2,9.31,9.31,0,0,0,.28,2.36,5.9,5.9,0,0,0,.81,1.89,3.89,3.89,0,0,0,1.34,1.25A3.68,3.68,0,0,0,71.55,46.34Z"/><path class="cls-1" d="M79.33,41a6.24,6.24,0,0,1,.49-2.46,6.12,6.12,0,0,1,3.39-3.26,6.76,6.76,0,0,1,2.52-.47,7.09,7.09,0,0,1,2.49.44,5.92,5.92,0,0,1,2,1.25,5.67,5.67,0,0,1,1.37,2,6.82,6.82,0,0,1,.08,4.92,5.84,5.84,0,0,1-3.26,3.33,6.85,6.85,0,0,1-2.73.51,7,7,0,0,1-2.48-.43,6.22,6.22,0,0,1-2-1.24,5.76,5.76,0,0,1-1.37-2A6.33,6.33,0,0,1,79.33,41ZM86,46.34a3.42,3.42,0,0,0,2.73-1.28,4.79,4.79,0,0,0,.78-1.51,6.67,6.67,0,0,0,.28-2,9.71,9.71,0,0,0-.27-2.35,5.68,5.68,0,0,0-.8-1.87,3.79,3.79,0,0,0-1.34-1.24,3.83,3.83,0,0,0-1.89-.45A3.49,3.49,0,0,0,84,36a3.36,3.36,0,0,0-1.2.93A4.15,4.15,0,0,0,82,38.37a6.55,6.55,0,0,0-.28,2A9.8,9.8,0,0,0,82,42.74a5.91,5.91,0,0,0,.82,1.89,3.81,3.81,0,0,0,1.34,1.25A3.65,3.65,0,0,0,86,46.34Z"/><path class="cls-1" d="M94.74,34q0-1,0-1.74c0-.49,0-.92-.07-1.28a8.18,8.18,0,0,0-.1-.9c-.05-.25-.09-.45-.14-.61v-.05h2.71v.05a4.5,4.5,0,0,0-.13.61c0,.24-.07.54-.1.9s-.06.79-.08,1.28,0,1.08,0,1.74v5.84l3.83-3.44c.68-.58,1-1.07,1-1.46h2.72V35a3,3,0,0,0-.58.24,4.1,4.1,0,0,0-.55.34l-.58.45-.65.57-3.43,3.13,4.71,5.57c.14.17.29.34.46.52s.33.34.49.49l.48.38a1.25,1.25,0,0,0,.44.21v0h-3.4a1.54,1.54,0,0,0-.16-.63,4.78,4.78,0,0,0-.57-.83l-4.22-5v1.9c0,.66,0,1.24,0,1.74s0,.92.08,1.28.06.66.1.9a4.5,4.5,0,0,0,.13.61v0H94.4v0c0-.16.09-.36.14-.61a8.18,8.18,0,0,0,.1-.9c0-.36,0-.79.07-1.28s0-1.08,0-1.74Z"/><path class="cls-1" d="M111.7,37.34l-.16,0a3.26,3.26,0,0,0-.27-.58,2.46,2.46,0,0,0-.47-.56,2.61,2.61,0,0,0-.69-.43,2.45,2.45,0,0,0-.93-.17,2.26,2.26,0,0,0-.69.11,1.61,1.61,0,0,0-.56.31,1.48,1.48,0,0,0-.38.51,1.74,1.74,0,0,0-.14.72,1.89,1.89,0,0,0,.36,1.09,6.35,6.35,0,0,0,.89,1c.36.34.75.68,1.17,1A12.07,12.07,0,0,1,111,41.5a5.66,5.66,0,0,1,.89,1.2,2.72,2.72,0,0,1,.36,1.37,3.36,3.36,0,0,1-.21,1.17,2.78,2.78,0,0,1-.65,1,3.14,3.14,0,0,1-1.13.72,4.21,4.21,0,0,1-1.63.28,4.9,4.9,0,0,1-1-.11,5.34,5.34,0,0,1-1.62-.61l-.57-.37.12-2.23h.19a3.88,3.88,0,0,0,.35,1,2.74,2.74,0,0,0,.58.78,2.52,2.52,0,0,0,.79.5,2.4,2.4,0,0,0,1,.19,1.93,1.93,0,0,0,1.38-.48,1.65,1.65,0,0,0,.51-1.26,2,2,0,0,0-.34-1.14,5.4,5.4,0,0,0-.88-1c-.35-.32-.73-.64-1.13-1a12.33,12.33,0,0,1-1.13-1,5.27,5.27,0,0,1-.87-1.19,3.15,3.15,0,0,1-.35-1.49,3.21,3.21,0,0,1,.25-1.25,3,3,0,0,1,.71-1,3.07,3.07,0,0,1,1.07-.62,4,4,0,0,1,1.36-.23,5.31,5.31,0,0,1,1.62.21,5.19,5.19,0,0,1,1,.39Z"/><path class="cls-1" d="M122,30.18l.49,0a3.73,3.73,0,0,0,.5,0h.56a9.94,9.94,0,0,0,1.24-.11,13.48,13.48,0,0,1,2-.12,6.34,6.34,0,0,1,2.08.33,4.75,4.75,0,0,1,1.65,1,4.48,4.48,0,0,1,1.1,1.54,5.23,5.23,0,0,1,.39,2.07,5.5,5.5,0,0,1-.62,2.7,5.17,5.17,0,0,1-1.66,1.84,6.2,6.2,0,0,1-2.4,1,8.5,8.5,0,0,1-2.85,0V42.4q0,1,0,1.74c0,.49,0,.92.07,1.28a8.18,8.18,0,0,0,.1.9c0,.25.09.45.14.61v0H122v0c0-.16.09-.36.13-.61s.08-.54.11-.9.06-.79.07-1.28,0-1.08,0-1.74V34.77c0-.66,0-1.25,0-1.74s0-.93-.07-1.29-.07-.67-.11-.91-.09-.44-.13-.61Zm2.47,9.36a6,6,0,0,0,2.1,0,3.51,3.51,0,0,0,1.64-.73,3.66,3.66,0,0,0,1.07-1.5,6.37,6.37,0,0,0,.38-2.32,7.09,7.09,0,0,0-.2-1.73,4,4,0,0,0-.59-1.33,2.68,2.68,0,0,0-1-.84,3.1,3.1,0,0,0-1.4-.3c-.33,0-.63,0-.88,0l-.63.09a3.24,3.24,0,0,0-.5.13Z"/><path class="cls-1" d="M139.68,37.34l-.16,0a2.61,2.61,0,0,0-.26-.58,2.74,2.74,0,0,0-.47-.56,2.61,2.61,0,0,0-.69-.43,2.46,2.46,0,0,0-.94-.17,2.15,2.15,0,0,0-.68.11,1.53,1.53,0,0,0-.56.31,1.48,1.48,0,0,0-.38.51,1.59,1.59,0,0,0-.15.72,1.89,1.89,0,0,0,.36,1.09,6.44,6.44,0,0,0,.9,1c.36.34.75.68,1.16,1A12.07,12.07,0,0,1,139,41.5a5.71,5.71,0,0,1,.9,1.2,2.71,2.71,0,0,1,.35,1.37,3.36,3.36,0,0,1-.21,1.17,2.66,2.66,0,0,1-.65,1,3.09,3.09,0,0,1-1.12.72,4.26,4.26,0,0,1-1.64.28,5,5,0,0,1-1.05-.11,5.47,5.47,0,0,1-.89-.26,4.83,4.83,0,0,1-.72-.35,6.32,6.32,0,0,1-.57-.37l.12-2.23h.18a3.89,3.89,0,0,0,.36,1,2.61,2.61,0,0,0,1.37,1.28,2.37,2.37,0,0,0,1,.19,1.93,1.93,0,0,0,1.38-.48,1.65,1.65,0,0,0,.51-1.26,2,2,0,0,0-.35-1.14,5.33,5.33,0,0,0-.87-1c-.35-.32-.73-.64-1.13-1a11.15,11.15,0,0,1-1.13-1,5,5,0,0,1-.88-1.19,3.15,3.15,0,0,1-.34-1.49,3,3,0,0,1,.25-1.25,2.94,2.94,0,0,1,.7-1,3.07,3.07,0,0,1,1.07-.62,4,4,0,0,1,1.36-.23,5.42,5.42,0,0,1,1.63.21,5.8,5.8,0,0,1,1,.39Z"/><path class="cls-1" d="M146.88,46.84l-4.13-9a7.56,7.56,0,0,0-.48-1c-.17-.32-.33-.6-.48-.85s-.29-.46-.41-.63a2.51,2.51,0,0,0-.23-.32V35h3.07V35a.53.53,0,0,0,0,.17c0,.08,0,.15,0,.21a3.56,3.56,0,0,0,.11.81,7.74,7.74,0,0,0,.42,1.09l3.23,7,3-6.93c.12-.29.25-.61.38-.95a3,3,0,0,0,.19-1.05,1.69,1.69,0,0,0,0-.25.44.44,0,0,0-.05-.13V35h2.11V35a4.18,4.18,0,0,0-.53.79,12.69,12.69,0,0,0-.69,1.42l-5.59,13.31c-.12.29-.25.61-.38,1a3,3,0,0,0-.19,1,1.69,1.69,0,0,0,0,.25.44.44,0,0,0,.05.13v0H144v0a4.31,4.31,0,0,0,.54-.78,13.1,13.1,0,0,0,.69-1.4Z"/><path class="cls-1" d="M164.88,44.48,164,46.57a6.55,6.55,0,0,1-.72.26c-.28.08-.56.14-.85.2s-.59.09-.89.12a8.39,8.39,0,0,1-.84,0,7.87,7.87,0,0,1-2.62-.42A5.9,5.9,0,0,1,156,45.56a5.57,5.57,0,0,1-1.36-2,6.73,6.73,0,0,1-.49-2.65,5.92,5.92,0,0,1,.51-2.46,6,6,0,0,1,1.41-2,6.54,6.54,0,0,1,2.14-1.3,7.49,7.49,0,0,1,2.67-.47,10.24,10.24,0,0,1,1.41.11,8.68,8.68,0,0,1,1.34.29l.83,2-.14.08a4,4,0,0,0-.7-.66,4.57,4.57,0,0,0-.89-.51,5.79,5.79,0,0,0-1-.33,5.1,5.1,0,0,0-1.11-.12A4.07,4.07,0,0,0,159,36a3.5,3.5,0,0,0-1.29.93,4.23,4.23,0,0,0-.84,1.49,6.25,6.25,0,0,0-.3,2,9.3,9.3,0,0,0,.29,2.36,5.75,5.75,0,0,0,.86,1.89,3.91,3.91,0,0,0,1.43,1.25,4.16,4.16,0,0,0,2,.46,4.54,4.54,0,0,0,2.08-.53,4.65,4.65,0,0,0,.87-.6,3.21,3.21,0,0,0,.67-.8Z"/><path class="cls-1" d="M175.32,39.08a3.46,3.46,0,0,0-.62-2.27,2.06,2.06,0,0,0-1.66-.73,2.69,2.69,0,0,0-.87.16,6.72,6.72,0,0,0-1,.43,10.74,10.74,0,0,0-1,.62,8.52,8.52,0,0,0-.91.76V42.4c0,.66,0,1.24,0,1.74s0,.92.07,1.28.07.66.11.9a4.5,4.5,0,0,0,.13.61v0h-2.71v0a4.5,4.5,0,0,0,.13-.61,7.9,7.9,0,0,0,.11-.9c0-.36.05-.79.07-1.28s0-1.08,0-1.74V34q0-1,0-1.74c0-.49,0-.92-.07-1.28a7.9,7.9,0,0,0-.11-.9,4.5,4.5,0,0,0-.13-.61v-.05h2.71v.05a4.5,4.5,0,0,0-.13.61c0,.24-.08.54-.11.9s0,.79-.07,1.28,0,1.08,0,1.74v3a12.84,12.84,0,0,1,1-.83,12.21,12.21,0,0,1,1.18-.74,7.84,7.84,0,0,1,1.24-.53,4.27,4.27,0,0,1,1.25-.19,3.48,3.48,0,0,1,1.55.31,3.06,3.06,0,0,1,1,.83,3.36,3.36,0,0,1,.59,1.18,5.09,5.09,0,0,1,.18,1.34v4c0,.66,0,1.24,0,1.74s0,.92.07,1.28.07.66.11.9a4.5,4.5,0,0,0,.13.61v0H175v0c.05-.16.09-.36.14-.61s.07-.54.1-.9.05-.79.07-1.28,0-1.08,0-1.74Z"/><path class="cls-1" d="M179.9,41a6.24,6.24,0,0,1,.49-2.46,6.12,6.12,0,0,1,3.39-3.26,6.76,6.76,0,0,1,2.52-.47,7.09,7.09,0,0,1,2.49.44,5.92,5.92,0,0,1,2,1.25,5.67,5.67,0,0,1,1.37,2,6.82,6.82,0,0,1,.08,4.92A5.84,5.84,0,0,1,189,46.68a6.85,6.85,0,0,1-2.73.51,7,7,0,0,1-2.48-.43,6.22,6.22,0,0,1-2-1.24,5.76,5.76,0,0,1-1.37-2A6.33,6.33,0,0,1,179.9,41Zm6.65,5.38a3.42,3.42,0,0,0,2.73-1.28,4.59,4.59,0,0,0,.78-1.51,6.67,6.67,0,0,0,.28-2,9.71,9.71,0,0,0-.27-2.35,5.68,5.68,0,0,0-.8-1.87,3.79,3.79,0,0,0-1.34-1.24,3.83,3.83,0,0,0-1.89-.45,3.49,3.49,0,0,0-1.52.33,3.36,3.36,0,0,0-1.2.93,4.31,4.31,0,0,0-.79,1.49,6.55,6.55,0,0,0-.28,2,9.8,9.8,0,0,0,.27,2.36,6.14,6.14,0,0,0,.82,1.89,3.81,3.81,0,0,0,1.34,1.25A3.65,3.65,0,0,0,186.55,46.34Z"/><path class="cls-1" d="M195.38,34q0-1,0-1.74c0-.49,0-.92-.07-1.28a8.18,8.18,0,0,0-.1-.9c-.05-.25-.09-.45-.14-.61v-.05h2.71v.05a4.5,4.5,0,0,0-.13.61c0,.24-.07.54-.1.9s-.06.79-.07,1.28,0,1.08,0,1.74V42.4q0,1,0,1.74c0,.49,0,.92.07,1.28s.06.66.1.9a4.5,4.5,0,0,0,.13.61v0H195v0c.05-.16.09-.36.14-.61a8.18,8.18,0,0,0,.1-.9c0-.36.05-.79.07-1.28s0-1.08,0-1.74Z"/><path class="cls-1" d="M200.12,41A6.05,6.05,0,0,1,202,36.54a6.19,6.19,0,0,1,2-1.3,6.76,6.76,0,0,1,2.52-.47,7.09,7.09,0,0,1,2.49.44,6.12,6.12,0,0,1,2,1.25,5.65,5.65,0,0,1,1.36,2,6.38,6.38,0,0,1,.5,2.6,6.53,6.53,0,0,1-.42,2.32,5.72,5.72,0,0,1-1.24,2,6.1,6.1,0,0,1-2,1.36,6.9,6.9,0,0,1-2.74.51,7,7,0,0,1-2.47-.43,6.26,6.26,0,0,1-2-1.24,5.91,5.91,0,0,1-1.37-2A6.5,6.5,0,0,1,200.12,41Zm6.64,5.38a3.5,3.5,0,0,0,1.53-.33,3.35,3.35,0,0,0,1.2-.95,4.61,4.61,0,0,0,.79-1.51,6.67,6.67,0,0,0,.28-2,9.71,9.71,0,0,0-.27-2.35,5.9,5.9,0,0,0-.8-1.87,3.9,3.9,0,0,0-1.35-1.24,3.76,3.76,0,0,0-1.88-.45,3.53,3.53,0,0,0-1.53.33,3.36,3.36,0,0,0-1.2.93,4.31,4.31,0,0,0-.79,1.49,6.55,6.55,0,0,0-.28,2,9.31,9.31,0,0,0,.28,2.36,5.9,5.9,0,0,0,.81,1.89,3.89,3.89,0,0,0,1.34,1.25A3.68,3.68,0,0,0,206.76,46.34Z"/><path class="cls-1" d="M220.06,52.34a5.33,5.33,0,0,0,1.61-.21,3.07,3.07,0,0,0,1.08-.57,2.34,2.34,0,0,0,.66-.87,5.24,5.24,0,0,0,.34-1.12,8.8,8.8,0,0,0,.13-1.3c0-.46,0-.94,0-1.43v-.39a5.94,5.94,0,0,1-1.38.52,6.85,6.85,0,0,1-1.83.22,7,7,0,0,1-2.53-.43A5.25,5.25,0,0,1,215,43.55a7.29,7.29,0,0,1-.44-2.59A7,7,0,0,1,215,38.5a5.88,5.88,0,0,1,1.21-2A5.6,5.6,0,0,1,218,35.22a5.84,5.84,0,0,1,2.4-.47,5,5,0,0,1,1.9.34,6.7,6.7,0,0,1,.76.36c.24.14.47.29.7.44l-.12-.86V35h2.59V35c0,.16-.09.36-.13.61s-.08.54-.11.9-.05.79-.07,1.28,0,1.08,0,1.74v8a7.76,7.76,0,0,1-.28,2.1,4.64,4.64,0,0,1-1,1.83,4.79,4.79,0,0,1-1.81,1.27,7.14,7.14,0,0,1-2.8.48,6,6,0,0,1-1.18-.11,9.51,9.51,0,0,1-1.14-.27,8.37,8.37,0,0,1-1-.34l-.69-.33-.36-2.25.18,0a3.61,3.61,0,0,0,.77,1.08,5.15,5.15,0,0,0,2.25,1.24A4.88,4.88,0,0,0,220.06,52.34Zm1.15-6a4,4,0,0,0,1.53-.29,4.33,4.33,0,0,0,1.15-.65V39.56c0-.44,0-.83,0-1.19s0-.68,0-1a3.74,3.74,0,0,0-.65-.77,4.5,4.5,0,0,0-.78-.56,4.17,4.17,0,0,0-.85-.36,3.24,3.24,0,0,0-.86-.12,3.75,3.75,0,0,0-1.6.33,3.31,3.31,0,0,0-1.22.94,4.41,4.41,0,0,0-.76,1.5,6.9,6.9,0,0,0-.26,2,9.31,9.31,0,0,0,.28,2.36,6.14,6.14,0,0,0,.82,1.89,4,4,0,0,0,1.36,1.25A3.67,3.67,0,0,0,221.21,46.34Z"/><path class="cls-1" d="M229.61,39.56q0-1,0-1.74c0-.49,0-.92-.07-1.28a8.18,8.18,0,0,0-.1-.9,4.33,4.33,0,0,0-.14-.61V35H232V35a4.5,4.5,0,0,0-.13.61c0,.24-.07.54-.1.9s-.06.79-.07,1.28,0,1.08,0,1.74V42.4q0,1,0,1.74c0,.49,0,.92.07,1.28s.06.66.1.9a4.5,4.5,0,0,0,.13.61v0h-2.71v0a4.33,4.33,0,0,0,.14-.61,8.18,8.18,0,0,0,.1-.9c0-.36.05-.79.07-1.28s0-1.08,0-1.74Zm-.24-8.13a1.19,1.19,0,0,1,.1-.49,1.31,1.31,0,0,1,.26-.4,1.36,1.36,0,0,1,.39-.27,1.39,1.39,0,0,1,.5-.09,1.35,1.35,0,0,1,.5.09,1.27,1.27,0,0,1,.67.67,1.38,1.38,0,0,1,.1.49,1.19,1.19,0,0,1-.37.9,1.22,1.22,0,0,1-.9.36,1.39,1.39,0,0,1-.5-.09,1.36,1.36,0,0,1-.39-.27,1.31,1.31,0,0,1-.26-.4A1.21,1.21,0,0,1,229.37,31.43Z"/><path class="cls-1" d="M245.07,44.48l-.87,2.09a6.55,6.55,0,0,1-.72.26c-.28.08-.56.14-.85.2s-.59.09-.89.12a8.26,8.26,0,0,1-.84,0,7.87,7.87,0,0,1-2.62-.42,5.77,5.77,0,0,1-2.07-1.21,5.46,5.46,0,0,1-1.37-2,6.73,6.73,0,0,1-.49-2.65,5.88,5.88,0,0,1,1.93-4.42,6.39,6.39,0,0,1,2.13-1.3,7.55,7.55,0,0,1,2.68-.47,10.22,10.22,0,0,1,1.4.11,8.68,8.68,0,0,1,1.34.29l.83,2-.14.08a4,4,0,0,0-.7-.66,4.3,4.3,0,0,0-.89-.51,5.53,5.53,0,0,0-1-.33,5.1,5.1,0,0,0-1.11-.12,4.1,4.1,0,0,0-1.66.33,3.5,3.5,0,0,0-1.29.93,4.23,4.23,0,0,0-.84,1.49,6.25,6.25,0,0,0-.29,2,9.31,9.31,0,0,0,.28,2.36,5.75,5.75,0,0,0,.86,1.89,3.91,3.91,0,0,0,1.43,1.25,4.18,4.18,0,0,0,2,.46,4.3,4.3,0,0,0,1.07-.14,4.4,4.4,0,0,0,1-.39,4.08,4.08,0,0,0,.87-.6,3.21,3.21,0,0,0,.67-.8Z"/><path class="cls-1" d="M246.51,43.52a3.26,3.26,0,0,1,.38-1.6,3.65,3.65,0,0,1,1-1.16,5.52,5.52,0,0,1,1.44-.78,10.6,10.6,0,0,1,1.67-.47q.87-.16,1.71-.24c.57,0,1.08-.06,1.55-.07v-.6a3.8,3.8,0,0,0-.2-1.33,2.5,2.5,0,0,0-.56-.94,2.31,2.31,0,0,0-.87-.55,3.37,3.37,0,0,0-1.12-.18,4.57,4.57,0,0,0-.83.07,4.73,4.73,0,0,0-.85.24,5.54,5.54,0,0,0-.93.44,11.1,11.1,0,0,0-1,.72l-.12-.07.8-1.66a6.42,6.42,0,0,1,.76-.28,7,7,0,0,1,.76-.19c.26,0,.53-.08.8-.1l.85,0a6.78,6.78,0,0,1,2.1.29,4,4,0,0,1,1.43.82,3.18,3.18,0,0,1,.81,1.22,4.38,4.38,0,0,1,.26,1.5V42.4q0,1,0,1.74c0,.49,0,.92.07,1.28a7.9,7.9,0,0,0,.11.9,4.5,4.5,0,0,0,.13.61v0h-2.59v0a2.2,2.2,0,0,0,.09-.42c0-.15,0-.34.05-.56a6.26,6.26,0,0,1-.58.43,4.53,4.53,0,0,1-.76.41,5,5,0,0,1-1,.29,5.8,5.8,0,0,1-1.14.11,4.72,4.72,0,0,1-3.15-.95A3.38,3.38,0,0,1,246.51,43.52Zm7.77-3.41a19.27,19.27,0,0,0-2.05.13,5.29,5.29,0,0,0-1.74.46,3.25,3.25,0,0,0-1,4.84,2.53,2.53,0,0,0,1.91.73,3.32,3.32,0,0,0,1-.16,3.68,3.68,0,0,0,.82-.4,2.84,2.84,0,0,0,.6-.53,2.52,2.52,0,0,0,.38-.56c0-.29,0-.62,0-1V40.11Z"/><path class="cls-1" d="M259.93,34q0-1,0-1.74c0-.49,0-.92-.07-1.28a7.9,7.9,0,0,0-.11-.9,4.5,4.5,0,0,0-.13-.61v-.05h2.71v.05a4.5,4.5,0,0,0-.13.61c0,.24-.08.54-.11.9s-.05.79-.07,1.28,0,1.08,0,1.74V42.4c0,.66,0,1.24,0,1.74s0,.92.07,1.28.07.66.11.9a4.5,4.5,0,0,0,.13.61v0h-2.71v0a4.5,4.5,0,0,0,.13-.61,7.9,7.9,0,0,0,.11-.9c0-.36.05-.79.07-1.28s0-1.08,0-1.74Z"/><path class="cls-1" d="M279.72,32.85h-.25a4.24,4.24,0,0,0-.3-.61,2.92,2.92,0,0,0-.54-.64,3,3,0,0,0-.81-.5,3,3,0,0,0-1.12-.2,2.73,2.73,0,0,0-1,.18,1.85,1.85,0,0,0-.74.49,2.2,2.2,0,0,0-.46.75,2.93,2.93,0,0,0-.15,1,3,3,0,0,0,.48,1.61A8.88,8.88,0,0,0,276,36.41c.47.5,1,1,1.54,1.5a19,19,0,0,1,1.55,1.56,9,9,0,0,1,1.19,1.69,3.94,3.94,0,0,1,.47,1.91,4.64,4.64,0,0,1-.26,1.53A3.91,3.91,0,0,1,278.26,47a5,5,0,0,1-2.06.38,6.62,6.62,0,0,1-1.28-.12,8.12,8.12,0,0,1-1.11-.3,8.81,8.81,0,0,1-.91-.4c-.27-.14-.49-.27-.67-.38l.27-2.59h.3a3.61,3.61,0,0,0,.42,1.05,3.34,3.34,0,0,0,.72.87,3.18,3.18,0,0,0,1,.61,3,3,0,0,0,1.21.23,3,3,0,0,0,1.07-.18,2.46,2.46,0,0,0,.81-.5,2.14,2.14,0,0,0,.52-.77,2.58,2.58,0,0,0,.19-1,3.42,3.42,0,0,0-.27-1.37,5.59,5.59,0,0,0-.71-1.19,11.21,11.21,0,0,0-1-1.09l-1.14-1.06c-.39-.35-.77-.72-1.14-1.09a8.13,8.13,0,0,1-1-1.21,6.14,6.14,0,0,1-.71-1.37,4.61,4.61,0,0,1-.27-1.61,3.79,3.79,0,0,1,.36-1.67,4,4,0,0,1,1-1.27,4.25,4.25,0,0,1,1.34-.81,4.3,4.3,0,0,1,1.55-.28,5.85,5.85,0,0,1,1.07.09,7.62,7.62,0,0,1,.89.23,7.21,7.21,0,0,1,.68.25l.48.22Z"/><path class="cls-1" d="M289,47.19a7.22,7.22,0,0,1-2.44-.41,5.49,5.49,0,0,1-3.31-3.16,6.71,6.71,0,0,1-.49-2.66,6.6,6.6,0,0,1,.45-2.46,5.82,5.82,0,0,1,1.23-2,5.56,5.56,0,0,1,4.1-1.77,5.91,5.91,0,0,1,2.24.42,4.92,4.92,0,0,1,1.78,1.2,5.59,5.59,0,0,1,1.2,2,8,8,0,0,1,.47,2.65l-2.64,0h-4.74l-1.74,0a8.63,8.63,0,0,0,.38,2.21,5.31,5.31,0,0,0,.85,1.68A3.73,3.73,0,0,0,287.69,46a4,4,0,0,0,1.76.38,5.28,5.28,0,0,0,1.28-.16,4.68,4.68,0,0,0,1.1-.44,4.5,4.5,0,0,0,.88-.66,4.24,4.24,0,0,0,.65-.83l.14.07-.86,2.09a7.74,7.74,0,0,1-1.51.55A8.61,8.61,0,0,1,289,47.19ZM287.46,40h2.35L292,40a8,8,0,0,0-.4-1.83,4.82,4.82,0,0,0-.75-1.37,3.2,3.2,0,0,0-1.08-.87,3.13,3.13,0,0,0-1.37-.31,2.62,2.62,0,0,0-1.25.3,3,3,0,0,0-1,.86,4.68,4.68,0,0,0-.68,1.38,7.24,7.24,0,0,0-.3,1.86l1.11,0Z"/><path class="cls-1" d="M296.77,39.56q0-1,0-1.74c0-.49,0-.92-.07-1.28a8.18,8.18,0,0,0-.1-.9,4.33,4.33,0,0,0-.14-.61V35h2.71V35a5.62,5.62,0,0,0-.16.65c0,.26-.07.59-.1,1,.29-.24.59-.48.91-.72a8.25,8.25,0,0,1,1-.62,5.48,5.48,0,0,1,1-.43,3.29,3.29,0,0,1,1-.16l.55,0a2.5,2.5,0,0,1,.43.09l.34.11.29.13-.58,2.24-.19-.05a1.58,1.58,0,0,0-.53-.83,1.69,1.69,0,0,0-1.06-.31,2.38,2.38,0,0,0-.76.13,5.61,5.61,0,0,0-.81.36,8.69,8.69,0,0,0-.82.53,9.36,9.36,0,0,0-.79.62c0,.23,0,.48,0,.74V42.4q0,1,0,1.74c0,.49,0,.92.07,1.28s.06.66.1.9a4.5,4.5,0,0,0,.13.61v0h-2.71v0a4.33,4.33,0,0,0,.14-.61,8.18,8.18,0,0,0,.1-.9c0-.36.05-.79.07-1.28s0-1.08,0-1.74Z"/><path class="cls-1" d="M307.29,35V35a.53.53,0,0,0,0,.17,1.62,1.62,0,0,0,0,.21,3.51,3.51,0,0,0,.1.81,8.05,8.05,0,0,0,.38,1.09l2.8,6.67,2.84-6.57.37-.95a3,3,0,0,0,.2-1.05,1.69,1.69,0,0,0,0-.25.44.44,0,0,0-.05-.13V35H316V35a4.18,4.18,0,0,0-.53.79,12.69,12.69,0,0,0-.69,1.42l-4.32,9.9h-.7l-4-9.32q-.21-.52-.45-1c-.16-.32-.32-.6-.46-.85s-.27-.46-.38-.63l-.22-.32V35Z"/><path class="cls-1" d="M317.68,39.56q0-1,0-1.74c0-.49,0-.92-.07-1.28a7.9,7.9,0,0,0-.11-.9,4.5,4.5,0,0,0-.13-.61V35h2.71V35a4.5,4.5,0,0,0-.13.61c0,.24-.08.54-.11.9s-.05.79-.07,1.28,0,1.08,0,1.74V42.4c0,.66,0,1.24,0,1.74s0,.92.07,1.28.07.66.11.9a4.5,4.5,0,0,0,.13.61v0h-2.71v0a4.5,4.5,0,0,0,.13-.61,7.9,7.9,0,0,0,.11-.9c0-.36.05-.79.07-1.28s0-1.08,0-1.74Zm-.25-8.13a1.38,1.38,0,0,1,.1-.49,1.56,1.56,0,0,1,.27-.4,1.16,1.16,0,0,1,.89-.36,1.39,1.39,0,0,1,.5.09,1.36,1.36,0,0,1,.39.27,1.18,1.18,0,0,1,.27.4,1.19,1.19,0,0,1,.1.49,1.23,1.23,0,0,1-1.26,1.26,1.16,1.16,0,0,1-.89-.36,1.56,1.56,0,0,1-.27-.4A1.39,1.39,0,0,1,317.43,31.43Z"/><path class="cls-1" d="M333.14,44.48l-.87,2.09a6.07,6.07,0,0,1-.73.26c-.27.08-.55.14-.85.2s-.58.09-.88.12a8.39,8.39,0,0,1-.84,0,7.87,7.87,0,0,1-2.62-.42,5.82,5.82,0,0,1-2.08-1.21,5.44,5.44,0,0,1-1.36-2,6.73,6.73,0,0,1-.5-2.65,5.92,5.92,0,0,1,.51-2.46,6,6,0,0,1,1.42-2,6.54,6.54,0,0,1,2.14-1.3,7.49,7.49,0,0,1,2.67-.47,10.24,10.24,0,0,1,1.41.11,8.53,8.53,0,0,1,1.33.29l.84,2-.14.08a4,4,0,0,0-.7-.66,4.57,4.57,0,0,0-.89-.51,5.89,5.89,0,0,0-1-.33,5,5,0,0,0-1.1-.12,4.07,4.07,0,0,0-1.66.33,3.5,3.5,0,0,0-1.29.93,4.23,4.23,0,0,0-.84,1.49,6.25,6.25,0,0,0-.3,2,9.3,9.3,0,0,0,.29,2.36,6,6,0,0,0,.85,1.89,4,4,0,0,0,1.43,1.25,4.22,4.22,0,0,0,2,.46,4.43,4.43,0,0,0,1.07-.14,4.59,4.59,0,0,0,1-.39,4.65,4.65,0,0,0,.87-.6,3.44,3.44,0,0,0,.67-.8Z"/><path class="cls-1" d="M340.77,47.19a7.22,7.22,0,0,1-2.44-.41A5.49,5.49,0,0,1,335,43.62a6.71,6.71,0,0,1-.49-2.66A6.6,6.6,0,0,1,335,38.5a5.82,5.82,0,0,1,1.23-2,5.56,5.56,0,0,1,4.1-1.77,5.91,5.91,0,0,1,2.24.42,4.92,4.92,0,0,1,1.78,1.2,5.59,5.59,0,0,1,1.2,2A8,8,0,0,1,346,41l-2.64,0h-4.74l-1.74,0a8.63,8.63,0,0,0,.38,2.21,5.31,5.31,0,0,0,.85,1.68A3.73,3.73,0,0,0,339.44,46a4,4,0,0,0,1.76.38,5.28,5.28,0,0,0,1.28-.16,4.68,4.68,0,0,0,1.1-.44,4.5,4.5,0,0,0,.88-.66,4.24,4.24,0,0,0,.65-.83l.14.07-.86,2.09a7.74,7.74,0,0,1-1.51.55A8.61,8.61,0,0,1,340.77,47.19ZM339.21,40h2.35l2.14,0a8,8,0,0,0-.4-1.83,4.82,4.82,0,0,0-.75-1.37,3.2,3.2,0,0,0-1.08-.87,3.13,3.13,0,0,0-1.37-.31,2.62,2.62,0,0,0-1.25.3,3,3,0,0,0-1,.86,4.68,4.68,0,0,0-.68,1.38,7.24,7.24,0,0,0-.3,1.86L338,40Z"/><path class="cls-1" d="M353.82,37.34l-.16,0a3.26,3.26,0,0,0-.27-.58,2.22,2.22,0,0,0-.47-.56,2.61,2.61,0,0,0-.69-.43,2.45,2.45,0,0,0-.93-.17,2.15,2.15,0,0,0-.68.11,1.57,1.57,0,0,0-.57.31,1.62,1.62,0,0,0-.38.51,1.74,1.74,0,0,0-.14.72,1.89,1.89,0,0,0,.36,1.09,6.44,6.44,0,0,0,.9,1c.35.34.74.68,1.16,1a12.07,12.07,0,0,1,1.17,1.08,5.33,5.33,0,0,1,.89,1.2,2.72,2.72,0,0,1,.36,1.37,3.36,3.36,0,0,1-.21,1.17,2.78,2.78,0,0,1-.65,1,3.14,3.14,0,0,1-1.13.72,4.21,4.21,0,0,1-1.63.28,5,5,0,0,1-1.05-.11,5.34,5.34,0,0,1-1.62-.61c-.21-.13-.4-.25-.56-.37l.11-2.23h.19a4.29,4.29,0,0,0,.35,1,2.74,2.74,0,0,0,.58.78,2.52,2.52,0,0,0,.79.5,2.41,2.41,0,0,0,1,.19,1.92,1.92,0,0,0,1.37-.48,1.65,1.65,0,0,0,.51-1.26,2,2,0,0,0-.34-1.14,5.05,5.05,0,0,0-.88-1c-.35-.32-.72-.64-1.13-1a12.33,12.33,0,0,1-1.13-1,5.27,5.27,0,0,1-.87-1.19,3.15,3.15,0,0,1-.35-1.49,3,3,0,0,1,.26-1.25,2.8,2.8,0,0,1,.7-1,3.07,3.07,0,0,1,1.07-.62,4,4,0,0,1,1.36-.23,5.31,5.31,0,0,1,1.62.21,5.19,5.19,0,0,1,1,.39Z"/><path class="cls-1" d="M356.41,46a1.16,1.16,0,0,1,.1-.49,1.56,1.56,0,0,1,.27-.4,1.41,1.41,0,0,1,.4-.27,1.29,1.29,0,0,1,.48-.1,1.06,1.06,0,0,1,.5.12,1.17,1.17,0,0,1,.4.3,1.68,1.68,0,0,1,.27.45,1.45,1.45,0,0,1,.1.55,2.76,2.76,0,0,1-.21,1,6.48,6.48,0,0,1-.53,1.1c-.23.38-.48.74-.75,1.11s-.56.7-.85,1l-.32-.27a7.45,7.45,0,0,0,.94-1.37,3.88,3.88,0,0,0,.41-1.49A1.23,1.23,0,0,1,356.41,46Z"/><path class="cls-1" d="M370.1,46.29a14.74,14.74,0,0,0,1.69-.08q.78-.08,1.35-.18a11.57,11.57,0,0,0,1.23-.25L374.14,47h-.28l-.41,0h-5v0c0-.11.06-.25.09-.41s0-.36.07-.6,0-.52.05-.85,0-.72,0-1.16V38.84c0-.44,0-.83,0-1.16s0-.62-.05-.86,0-.44-.07-.61-.06-.29-.09-.4v0h1.87v0c0,.11-.06.24-.09.4s-.05.37-.07.61,0,.53,0,.86,0,.72,0,1.16Z"/><path class="cls-1" d="M377.46,46.29a14.74,14.74,0,0,0,1.69-.08q.78-.08,1.35-.18a11.57,11.57,0,0,0,1.23-.25L381.5,47h-.28l-.42,0h-5v0c0-.11.06-.25.09-.41s.05-.36.07-.6,0-.52,0-.85,0-.72,0-1.16V38.84c0-.44,0-.83,0-1.16s0-.62,0-.86,0-.44-.07-.61-.06-.29-.09-.4v0h1.87v0c0,.11-.06.24-.09.4s0,.37-.07.61,0,.53,0,.86,0,.72,0,1.16Z"/><path class="cls-1" d="M392.23,37.5l-.07,0a4.49,4.49,0,0,0-1.46-.9,5,5,0,0,0-1.88-.34,5.25,5.25,0,0,0-1.81.31,3.94,3.94,0,0,0-2.33,2.33,5.6,5.6,0,0,0-.32,1.94,7.61,7.61,0,0,0,.31,2.23,5.16,5.16,0,0,0,.93,1.79,4.25,4.25,0,0,0,1.54,1.2,5.2,5.2,0,0,0,2.16.43,4.48,4.48,0,0,0,.89-.09,5.08,5.08,0,0,0,.86-.28,4,4,0,0,0,.77-.45,4.1,4.1,0,0,0,.66-.59l.09,0-.63,1.59a6.74,6.74,0,0,1-1.29.35,8.54,8.54,0,0,1-1.43.12,7.94,7.94,0,0,1-2.64-.42,5.88,5.88,0,0,1-2.06-1.18,5.26,5.26,0,0,1-1.35-1.84,5.76,5.76,0,0,1-.48-2.39,5.65,5.65,0,0,1,.75-2.82,5.84,5.84,0,0,1,.91-1.2,6.07,6.07,0,0,1,1.23-.94,6.64,6.64,0,0,1,1.52-.62,6.94,6.94,0,0,1,1.8-.22,8.18,8.18,0,0,1,2.8.46Z"/><polygon class="cls-2" points="0.25 43.2 31.59 0.2 47.26 18.46 56.52 11.39 68.63 25.53 80.03 19.05 93.56 43.2 0.25 43.2"/></g></g></svg>