<svg xmlns="http://www.w3.org/2000/svg" xmlns:xlink="http://www.w3.org/1999/xlink" viewBox="0 0 282.62 43.83"><defs><style>.cls-1{fill:#1a4366;}.cls-2{isolation:isolate;opacity:0.47;}.cls-3{fill:url(#linear-gradient);}.cls-4{fill:#21409a;}</style><linearGradient id="linear-gradient" x1="0.22" y1="20.1" x2="69.22" y2="20.1" gradientUnits="userSpaceOnUse"><stop offset="0" stop-color="#2484c6"/><stop offset="0.65" stop-color="#084260" stop-opacity="0.2"/></linearGradient></defs><g id="Layer_2" data-name="Layer 2"><g id="Layer_1-2" data-name="Layer 1"><path class="cls-1" d="M23.19,25.74q0-1,0-1.74c0-.49,0-.92-.07-1.29S23,22.05,23,21.8a4.5,4.5,0,0,0-.14-.6v-.05H24.4c.28,0,.66,0,1.15-.08A15.49,15.49,0,0,1,27.4,21a6.38,6.38,0,0,1,2,.28,4.66,4.66,0,0,1,1.54.78,3.68,3.68,0,0,1,1.39,3,4.37,4.37,0,0,1-.22,1.45,3.43,3.43,0,0,1-.62,1.11,3.48,3.48,0,0,1-1,.8,4.9,4.9,0,0,1-1.24.51,7.07,7.07,0,0,1,1.81.51,5.44,5.44,0,0,1,1.42.89,3.77,3.77,0,0,1,.91,1.26,3.82,3.82,0,0,1,.33,1.6,4.35,4.35,0,0,1-1.63,3.71,8,8,0,0,1-4.87,1.25l-.82,0-1-.07L24.46,38l-.82,0h-.78v0A5.11,5.11,0,0,0,23,37.3c0-.25.08-.55.11-.91s.05-.78.07-1.28,0-1.08,0-1.74Zm2.14,3a4.14,4.14,0,0,0,.58,0h.55a4.52,4.52,0,0,0,1.46-.23A2.94,2.94,0,0,0,29,27.89a3.09,3.09,0,0,0,.72-1.14,5.08,5.08,0,0,0,.07-3,2.9,2.9,0,0,0-.56-1.06,2.37,2.37,0,0,0-.91-.68,3.17,3.17,0,0,0-1.23-.23,6.14,6.14,0,0,0-.78,0c-.22,0-.41.05-.57.08a2.24,2.24,0,0,0-.45.12Zm2.17.88a12.38,12.38,0,0,0-1.34.06c-.36,0-.64.08-.83.12v3.55c0,.91,0,1.67.05,2.26s.08,1.08.13,1.45l.89.11c.3,0,.54,0,.72,0a4.47,4.47,0,0,0,3.2-1,4,4,0,0,0,1-3,4.3,4.3,0,0,0-.24-1.46,3.08,3.08,0,0,0-.72-1.14,3.17,3.17,0,0,0-1.19-.74A5,5,0,0,0,27.5,29.64Z"/><path class="cls-1" d="M36.45,30.52q0-1,0-1.74c0-.5-.05-.93-.07-1.28s-.07-.66-.11-.91A5.11,5.11,0,0,0,36.1,26v0h2.71V26a5.35,5.35,0,0,0-.16.66q-.06.39-.09,1c.28-.24.58-.48.9-.71a8.34,8.34,0,0,1,1-.63,6.28,6.28,0,0,1,1-.43,3.63,3.63,0,0,1,1-.17,4.33,4.33,0,0,1,.55,0,2.5,2.5,0,0,1,.43.09l.34.11.29.12-.57,2.24-.2,0a1.58,1.58,0,0,0-.53-.83,1.62,1.62,0,0,0-1-.31,2.7,2.7,0,0,0-.77.13,5.07,5.07,0,0,0-.8.36,6.71,6.71,0,0,0-.82.53c-.28.2-.54.41-.8.63,0,.22,0,.47,0,.73v3.87q0,1,0,1.74c0,.5,0,.93.07,1.29s.07.66.11.9a3.78,3.78,0,0,0,.13.61v0H36.12v0a4.87,4.87,0,0,0,.13-.61c0-.24.08-.54.11-.9s0-.79.07-1.29,0-1.07,0-1.74Z"/><path class="cls-1" d="M44.88,31.9a6,6,0,0,1,.49-2.45,5.87,5.87,0,0,1,1.35-2,6.2,6.2,0,0,1,2-1.3,6.76,6.76,0,0,1,2.52-.47,7.08,7.08,0,0,1,2.49.43,6.18,6.18,0,0,1,2,1.25,5.67,5.67,0,0,1,1.37,2,6.82,6.82,0,0,1,.08,4.92,5.72,5.72,0,0,1-1.24,2,6,6,0,0,1-2,1.37,7.47,7.47,0,0,1-5.21.08,6,6,0,0,1-2-1.24,5.89,5.89,0,0,1-1.38-2A6.55,6.55,0,0,1,44.88,31.9Zm6.65,5.37a3.56,3.56,0,0,0,1.53-.33,3.42,3.42,0,0,0,1.2-.95A4.68,4.68,0,0,0,55,34.48a6.62,6.62,0,0,0,.28-2,9.63,9.63,0,0,0-.27-2.34,5.75,5.75,0,0,0-.81-1.88A3.67,3.67,0,0,0,52.9,27,3.83,3.83,0,0,0,51,26.56a3.49,3.49,0,0,0-1.52.33,3.36,3.36,0,0,0-1.2.93,4.46,4.46,0,0,0-.79,1.5,6.55,6.55,0,0,0-.28,2,9.29,9.29,0,0,0,.28,2.35,5.81,5.81,0,0,0,.81,1.89,4,4,0,0,0,1.35,1.26A3.86,3.86,0,0,0,51.53,37.27Z"/><path class="cls-1" d="M59.3,31.89a6,6,0,0,1,.49-2.46,6.13,6.13,0,0,1,1.35-2,6.33,6.33,0,0,1,2-1.31,7.12,7.12,0,0,1,5,0,6,6,0,0,1,2,1.24,5.91,5.91,0,0,1,1.37,2,6.82,6.82,0,0,1,.08,4.92,5.72,5.72,0,0,1-1.24,2,6.12,6.12,0,0,1-2,1.37,6.85,6.85,0,0,1-2.73.51,7,7,0,0,1-2.48-.43,6.1,6.1,0,0,1-2-1.24,5.86,5.86,0,0,1-1.37-2A6.33,6.33,0,0,1,59.3,31.89ZM66,37.26a3.5,3.5,0,0,0,1.53-.33,3.35,3.35,0,0,0,1.2-1,4.56,4.56,0,0,0,.79-1.52,6.56,6.56,0,0,0,.27-2,9.66,9.66,0,0,0-.27-2.35,6.06,6.06,0,0,0-.8-1.88A4,4,0,0,0,67.32,27a3.79,3.79,0,0,0-1.88-.44,3.5,3.5,0,0,0-1.53.32,3.6,3.6,0,0,0-1.2.93,4.46,4.46,0,0,0-.79,1.5,6.56,6.56,0,0,0-.27,2,9.71,9.71,0,0,0,.27,2.35,6.2,6.2,0,0,0,.82,1.9,4,4,0,0,0,1.34,1.25A3.78,3.78,0,0,0,66,37.26Z"/><path class="cls-1" d="M74.7,25q0-1,0-1.74c0-.49,0-.92-.07-1.28a7.9,7.9,0,0,0-.11-.9,4.87,4.87,0,0,0-.13-.61v-.05h2.71v.05a4.67,4.67,0,0,0-.13.6c0,.25-.08.55-.11.91s0,.78-.07,1.28,0,1.08,0,1.74v5.84l3.83-3.44c.67-.59,1-1.08,1-1.47H84.3v.05a3.23,3.23,0,0,0-.58.24,4.84,4.84,0,0,0-.55.34L82.6,27l-.65.57-3.43,3.14,4.72,5.56c.14.17.29.34.46.52a5.52,5.52,0,0,0,.49.48,4.11,4.11,0,0,0,.48.39,1.3,1.3,0,0,0,.43.21v.05H81.7a1.52,1.52,0,0,0-.15-.63,4.78,4.78,0,0,0-.57-.83l-4.23-5v1.9q0,1,0,1.74c0,.49,0,.92.07,1.28s.07.66.11.9a4.87,4.87,0,0,0,.13.61v0H74.38v0a4.5,4.5,0,0,0,.13-.61,7.9,7.9,0,0,0,.11-.9c0-.36,0-.79.07-1.28s0-1.08,0-1.74Z"/><path class="cls-1" d="M91.67,28.23l-.17,0a2.37,2.37,0,0,0-.26-.57,2.3,2.3,0,0,0-.47-.57,2.36,2.36,0,0,0-.69-.42,2.29,2.29,0,0,0-.94-.17,2.15,2.15,0,0,0-.68.1,1.55,1.55,0,0,0-.56.32,1.32,1.32,0,0,0-.38.51,1.58,1.58,0,0,0-.14.71,2,2,0,0,0,.35,1.1,6.91,6.91,0,0,0,.9,1c.36.33.75.68,1.17,1A12.07,12.07,0,0,1,91,32.39a5.71,5.71,0,0,1,.9,1.2A2.82,2.82,0,0,1,92.22,35,3.36,3.36,0,0,1,92,36.13a2.76,2.76,0,0,1-.64,1,3.39,3.39,0,0,1-1.13.73,4.45,4.45,0,0,1-1.63.27,4.93,4.93,0,0,1-1-.1,6.28,6.28,0,0,1-.89-.26,7.13,7.13,0,0,1-.73-.35l-.57-.37.12-2.23h.18a4,4,0,0,0,.36,1,2.83,2.83,0,0,0,.58.78,2.54,2.54,0,0,0,1.76.68,1.93,1.93,0,0,0,1.38-.48,1.65,1.65,0,0,0,.51-1.26,2,2,0,0,0-.35-1.14,5.05,5.05,0,0,0-.88-1c-.35-.32-.72-.64-1.13-1a12.23,12.23,0,0,1-1.13-1,5.32,5.32,0,0,1-.87-1.2,3.11,3.11,0,0,1-.35-1.48,3,3,0,0,1,.25-1.25,2.84,2.84,0,0,1,.7-1,3.26,3.26,0,0,1,1.07-.63,4,4,0,0,1,1.36-.22,5.45,5.45,0,0,1,1.63.2,5.8,5.8,0,0,1,1,.39Z"/><path class="cls-1" d="M101.92,21.05l.49.05.5,0h.57a8.32,8.32,0,0,0,1.24-.11,15.19,15.19,0,0,1,2-.11,6.3,6.3,0,0,1,2.08.32,4.79,4.79,0,0,1,1.66,1,4.38,4.38,0,0,1,1.1,1.54,5.2,5.2,0,0,1,.4,2.07,5.54,5.54,0,0,1-.62,2.69,5.29,5.29,0,0,1-1.66,1.85,6.19,6.19,0,0,1-2.41.95,8.69,8.69,0,0,1-2.84,0v1.94q0,1,0,1.74c0,.5,0,.93.07,1.29s.07.66.11.9.09.44.13.61v0h-2.81v0c0-.16.09-.37.14-.61s.08-.54.11-.9,0-.79.07-1.28,0-1.08,0-1.75V25.65q0-1,0-1.74c0-.5,0-.93-.07-1.29s-.07-.67-.11-.91-.09-.45-.14-.61Zm2.49,9.36a5.74,5.74,0,0,0,2.1,0,3.51,3.51,0,0,0,1.64-.73,3.55,3.55,0,0,0,1.06-1.5,6.16,6.16,0,0,0,.38-2.32,7.09,7.09,0,0,0-.2-1.73,4,4,0,0,0-.59-1.33,2.68,2.68,0,0,0-1-.84,3.1,3.1,0,0,0-1.4-.3,7.48,7.48,0,0,0-.88.05c-.25,0-.46.05-.63.08a5,5,0,0,0-.5.13Z"/><path class="cls-1" d="M119.65,28.19l-.16,0a3,3,0,0,0-.27-.58,2.46,2.46,0,0,0-.47-.56,2.61,2.61,0,0,0-.69-.43,2.45,2.45,0,0,0-.93-.17,2.26,2.26,0,0,0-.69.11,1.61,1.61,0,0,0-.56.31,1.48,1.48,0,0,0-.38.51,1.74,1.74,0,0,0-.14.72,1.89,1.89,0,0,0,.36,1.09,6.44,6.44,0,0,0,.9,1c.36.34.75.68,1.16,1A13.39,13.39,0,0,1,119,32.35a6.27,6.27,0,0,1,.9,1.2,2.79,2.79,0,0,1,.36,1.38A3.36,3.36,0,0,1,120,36.1a3,3,0,0,1-.65,1,3.18,3.18,0,0,1-1.12.72,4.3,4.3,0,0,1-1.64.28,5.06,5.06,0,0,1-1-.1,5.47,5.47,0,0,1-.89-.27,4.49,4.49,0,0,1-.73-.35c-.21-.13-.4-.25-.56-.37l.11-2.22h.19a3.94,3.94,0,0,0,.35,1,2.68,2.68,0,0,0,1.37,1.29,2.59,2.59,0,0,0,1,.18,1.93,1.93,0,0,0,1.37-.49,1.64,1.64,0,0,0,.51-1.25,2,2,0,0,0-.35-1.14,5.33,5.33,0,0,0-.87-1c-.35-.32-.73-.64-1.13-1a10.09,10.09,0,0,1-1.13-1,5,5,0,0,1-.88-1.19,3.28,3.28,0,0,1-.1-2.73,2.91,2.91,0,0,1,.71-1,3.14,3.14,0,0,1,1.07-.62,3.92,3.92,0,0,1,1.36-.23,5.19,5.19,0,0,1,2.61.6Z"/><path class="cls-1" d="M126.86,37.69l-4.14-9c-.15-.35-.31-.67-.48-1s-.34-.6-.49-.85-.29-.46-.4-.63l-.24-.32v-.05h3.07v.05a.65.65,0,0,0,0,.17,1.62,1.62,0,0,0,0,.21,3.07,3.07,0,0,0,.11.81,5.86,5.86,0,0,0,.42,1.09l3.24,7,2.94-6.94c.13-.29.25-.61.38-.95a2.94,2.94,0,0,0,.19-1,1,1,0,0,0,0-.26.44.44,0,0,0-.05-.13v-.05h2.11v.05a4.73,4.73,0,0,0-.53.79,14.92,14.92,0,0,0-.68,1.42L126.67,41.4c-.12.29-.25.61-.38,1a3.18,3.18,0,0,0-.19,1,.93.93,0,0,0,0,.26.5.5,0,0,0,0,.13v0H124v0a3.34,3.34,0,0,0,.54-.78,11.44,11.44,0,0,0,.69-1.4Z"/><path class="cls-1" d="M144.85,35.31,144,37.4a6.07,6.07,0,0,1-.73.26c-.27.07-.55.14-.85.2s-.58.09-.88.12a8.45,8.45,0,0,1-.85,0,7.85,7.85,0,0,1-2.61-.41A5.88,5.88,0,0,1,136,36.4a5.54,5.54,0,0,1-1.37-2,6.65,6.65,0,0,1-.49-2.64,5.83,5.83,0,0,1,1.92-4.42,6.62,6.62,0,0,1,2.14-1.31,7.49,7.49,0,0,1,2.67-.47,10.22,10.22,0,0,1,1.4.11,10.11,10.11,0,0,1,1.34.28l.83,2-.14.08a3.62,3.62,0,0,0-.69-.66,4.38,4.38,0,0,0-.9-.51,5.53,5.53,0,0,0-1-.33,5.07,5.07,0,0,0-1.1-.11,4.11,4.11,0,0,0-1.67.32,3.74,3.74,0,0,0-1.29.93,4.52,4.52,0,0,0-.83,1.5,6.25,6.25,0,0,0-.3,2,9.22,9.22,0,0,0,.29,2.35,5.86,5.86,0,0,0,.86,1.89,4,4,0,0,0,1.43,1.26,4.33,4.33,0,0,0,2,.45,4.45,4.45,0,0,0,1.08-.14,4.33,4.33,0,0,0,1-.39,4.88,4.88,0,0,0,.88-.6,3.61,3.61,0,0,0,.66-.8Z"/><path class="cls-1" d="M155.29,29.89a3.42,3.42,0,0,0-.63-2.27A2.08,2.08,0,0,0,153,26.9a2.63,2.63,0,0,0-.86.16,5.44,5.44,0,0,0-1,.43,9,9,0,0,0-1.91,1.38v4.35c0,.66,0,1.24,0,1.74s0,.92.08,1.28.06.66.1.9.09.45.13.61v0h-2.7v0c0-.17.09-.37.13-.61a8.7,8.7,0,0,0,.1-.91c0-.36.05-.78.07-1.28s0-1.08,0-1.74V24.87c0-.67,0-1.25,0-1.75s-.05-.92-.07-1.28-.07-.66-.11-.9a4.69,4.69,0,0,0-.14-.61v0h2.71v0c0,.16-.09.36-.13.61s-.07.54-.1.9-.06.79-.07,1.28,0,1.08,0,1.74v3a11.47,11.47,0,0,1,1-.83,11.1,11.1,0,0,1,1.18-.74,6.43,6.43,0,0,1,1.24-.53,4.17,4.17,0,0,1,1.24-.2,3.32,3.32,0,0,1,1.55.32,2.89,2.89,0,0,1,1.05.83,3.21,3.21,0,0,1,.58,1.17,5.1,5.1,0,0,1,.19,1.34v4q0,1,0,1.74c0,.49,0,.92.07,1.28s.07.66.11.9a3.36,3.36,0,0,0,.13.61v0H155v0c0-.17.09-.37.13-.61s.08-.55.11-.91.05-.78.06-1.28,0-1.07,0-1.74Z"/><path class="cls-1" d="M159.87,31.76a6,6,0,0,1,.49-2.45,6.17,6.17,0,0,1,1.35-2,6.31,6.31,0,0,1,2-1.3,7.12,7.12,0,0,1,5,0,6,6,0,0,1,2,1.24,5.81,5.81,0,0,1,1.37,2,6.82,6.82,0,0,1,.08,4.92,5.87,5.87,0,0,1-1.24,2,6.12,6.12,0,0,1-2,1.37,6.87,6.87,0,0,1-2.74.51,7,7,0,0,1-2.47-.43,6.1,6.1,0,0,1-2-1.24,5.86,5.86,0,0,1-1.37-2A6.35,6.35,0,0,1,159.87,31.76Zm6.65,5.37a3.64,3.64,0,0,0,1.53-.32,3.28,3.28,0,0,0,1.2-1,4.41,4.41,0,0,0,.79-1.51,6.56,6.56,0,0,0,.27-2A9.66,9.66,0,0,0,170,30a6,6,0,0,0-.8-1.88,3.87,3.87,0,0,0-1.35-1.23,3.79,3.79,0,0,0-1.88-.45,3.65,3.65,0,0,0-1.53.33,3.48,3.48,0,0,0-1.2.93,4.46,4.46,0,0,0-.79,1.5,6.56,6.56,0,0,0-.27,2,9.71,9.71,0,0,0,.27,2.35,6,6,0,0,0,.82,1.89,3.92,3.92,0,0,0,1.34,1.26A3.67,3.67,0,0,0,166.52,37.13Z"/><path class="cls-1" d="M179.53,37.07a1.89,1.89,0,0,0,.7-.13,2.87,2.87,0,0,0,.67-.35,5.77,5.77,0,0,0,.62-.51,6.2,6.2,0,0,0,.55-.6l.12.05-.76,1.89-.35.17a3,3,0,0,1-.49.19,4.5,4.5,0,0,1-.67.15A4.92,4.92,0,0,1,179,38a3.34,3.34,0,0,1-2.44-.85,3.6,3.6,0,0,1-.88-2.65V26.68l-2,.08v-1l.86,0h1.1c0-.56,0-1.05,0-1.47s0-.8-.07-1.12-.06-.58-.1-.8-.08-.4-.12-.55v0h2.71v0a4.09,4.09,0,0,0-.13.55c0,.22-.07.48-.1.8s0,.68-.07,1.1,0,.92,0,1.49l1.45,0,1.29,0,1-.06.54-.06-.21,1.2-1.26,0-1.29,0-1.5,0v8.06a3.77,3.77,0,0,0,.16,1.18,2.08,2.08,0,0,0,.41.71,1.3,1.3,0,0,0,.58.35A2.39,2.39,0,0,0,179.53,37.07Z"/><path class="cls-1" d="M192.55,29.85a3.46,3.46,0,0,0-.62-2.27,2.06,2.06,0,0,0-1.67-.73,3,3,0,0,0-.86.16,6.72,6.72,0,0,0-1,.43,9.07,9.07,0,0,0-1,.63,8.52,8.52,0,0,0-.91.76v4.34c0,.67,0,1.25,0,1.74s0,.93.07,1.29.07.66.11.9a5.29,5.29,0,0,0,.13.61v0h-2.71v0a4.87,4.87,0,0,0,.13-.61,7.9,7.9,0,0,0,.11-.9c0-.36,0-.79.07-1.28s0-1.08,0-1.74V24.82c0-.66,0-1.24,0-1.74s0-.92-.07-1.28-.06-.66-.1-.91-.09-.44-.14-.6v-.05h2.71v0a5.29,5.29,0,0,0-.13.61c0,.24-.07.55-.11.9s-.05.79-.06,1.29,0,1.07,0,1.74v3c.31-.28.66-.56,1-.84a11.1,11.1,0,0,1,1.18-.74,7.78,7.78,0,0,1,1.24-.52,3.92,3.92,0,0,1,1.24-.2,3.4,3.4,0,0,1,1.56.31,3.06,3.06,0,0,1,1,.83,3.28,3.28,0,0,1,.59,1.18,5.09,5.09,0,0,1,.18,1.34v4c0,.67,0,1.25,0,1.74s0,.93.07,1.29.07.66.11.9a5.29,5.29,0,0,0,.13.61v0h-2.71v0c.05-.16.09-.37.14-.61s.07-.54.1-.9,0-.79.07-1.28,0-1.08,0-1.74Z"/><path class="cls-1" d="M203.38,38a7.22,7.22,0,0,1-2.44-.41,5.49,5.49,0,0,1-3.31-3.16,6.71,6.71,0,0,1-.49-2.66,6.64,6.64,0,0,1,.44-2.46,6.15,6.15,0,0,1,1.23-2,5.62,5.62,0,0,1,4.1-1.78,5.91,5.91,0,0,1,2.24.42,5.18,5.18,0,0,1,1.79,1.2,5.72,5.72,0,0,1,1.19,2,7.77,7.77,0,0,1,.48,2.65l-2.65,0h-2.75l-2,0c-.64,0-1.22,0-1.74,0a9.07,9.07,0,0,0,.39,2.21,5.31,5.31,0,0,0,.85,1.68,3.82,3.82,0,0,0,1.33,1.07,4,4,0,0,0,1.76.37,4.9,4.9,0,0,0,1.29-.16,4.6,4.6,0,0,0,1.09-.44,4.5,4.5,0,0,0,.88-.66,4.24,4.24,0,0,0,.65-.83l.15.07L207,37.16a6.94,6.94,0,0,1-1.51.55A8.57,8.57,0,0,1,203.38,38Zm-1.57-7.15h2.35c.79,0,1.5,0,2.14,0a7.47,7.47,0,0,0-.4-1.83,4.82,4.82,0,0,0-.75-1.37,3.32,3.32,0,0,0-1.08-.87,3.09,3.09,0,0,0-1.37-.3,2.65,2.65,0,0,0-1.25.3,3,3,0,0,0-1,.86,4.68,4.68,0,0,0-.68,1.38,7.24,7.24,0,0,0-.3,1.86l1.11,0Z"/><path class="cls-1" d="M211.13,30.31q0-1,0-1.74c0-.5,0-.93-.07-1.29s-.07-.66-.11-.9a5.11,5.11,0,0,0-.14-.61v0h2.71v.05a5.35,5.35,0,0,0-.16.66c0,.25-.07.59-.1,1,.29-.24.59-.48.91-.71a7.2,7.2,0,0,1,1-.63,5.48,5.48,0,0,1,1-.43,3.3,3.3,0,0,1,1-.17,4.33,4.33,0,0,1,.55,0l.43.08.34.12.29.12-.57,2.24-.2,0a1.58,1.58,0,0,0-.53-.83,1.62,1.62,0,0,0-1.05-.31,2.39,2.39,0,0,0-.77.13,5.61,5.61,0,0,0-.81.36,7.47,7.47,0,0,0-.81.53c-.28.2-.54.41-.8.63,0,.22,0,.47,0,.73v3.87q0,1,0,1.74c0,.5,0,.93.07,1.28s.07.66.11.91a5.49,5.49,0,0,0,.12.61v0h-2.7v0c0-.16.09-.37.13-.61s.08-.54.11-.9.05-.79.06-1.29,0-1.07,0-1.74Z"/><path class="cls-1" d="M219.13,34.26a3.19,3.19,0,0,1,.37-1.61,3.9,3.9,0,0,1,1-1.16,5.52,5.52,0,0,1,1.44-.78,10.31,10.31,0,0,1,1.67-.47q.87-.16,1.71-.24c.57,0,1.08-.07,1.55-.07v-.6a4.11,4.11,0,0,0-.2-1.34,2.56,2.56,0,0,0-.57-.93,2.31,2.31,0,0,0-.87-.55,3.33,3.33,0,0,0-1.12-.18,4.57,4.57,0,0,0-.83.07,5,5,0,0,0-.85.24,6.9,6.9,0,0,0-.92.44,9,9,0,0,0-1.05.72l-.12-.07.8-1.65a4.73,4.73,0,0,1,.76-.29,4.94,4.94,0,0,1,.76-.18,6.82,6.82,0,0,1,.79-.1c.27,0,.55,0,.85,0a6.23,6.23,0,0,1,2.1.29,3.9,3.9,0,0,1,1.43.82,3.14,3.14,0,0,1,.82,1.22,4.28,4.28,0,0,1,.26,1.49v3.82q0,1,0,1.74c0,.5,0,.93.08,1.29a8.47,8.47,0,0,0,.1.9c.05.24.09.44.14.61v0h-2.59v-.05a2.59,2.59,0,0,0,.09-.42c0-.16,0-.35.05-.56-.17.14-.36.28-.58.43a5.39,5.39,0,0,1-.76.41,5.9,5.9,0,0,1-1,.29,5.8,5.8,0,0,1-1.14.11,4.71,4.71,0,0,1-3.16-1A3.39,3.39,0,0,1,219.13,34.26Zm7.76-3.42c-.71,0-1.39.05-2,.12a5.54,5.54,0,0,0-1.74.47,3.12,3.12,0,0,0-1.21,1,2.93,2.93,0,0,0-.44,1.73,3,3,0,0,0,.69,2.11,2.53,2.53,0,0,0,1.91.73,3.65,3.65,0,0,0,1-.16,3.91,3.91,0,0,0,.82-.4,3.44,3.44,0,0,0,.6-.53,2.46,2.46,0,0,0,.37-.56q0-.45,0-1c0-.36,0-.77,0-1.24Z"/><path class="cls-1" d="M232.47,30.05q0-1,0-1.74c0-.5-.05-.93-.08-1.29a8.47,8.47,0,0,0-.1-.9c0-.24-.09-.44-.14-.61v0h2.71v.05a3.26,3.26,0,0,0-.11.4c0,.15-.05.31-.08.5a8.22,8.22,0,0,1,1.53-.67,5.76,5.76,0,0,1,1.86-.28,6,6,0,0,1,2.37.44,5.14,5.14,0,0,1,1.84,1.25,5.81,5.81,0,0,1,1.2,2,7.58,7.58,0,0,1,.42,2.6,6.71,6.71,0,0,1-.41,2.32,5.81,5.81,0,0,1-3.19,3.34,6.7,6.7,0,0,1-2.7.51,8.54,8.54,0,0,1-1.66-.13,9.86,9.86,0,0,1-1.38-.37v1.72c0,.66,0,1.24,0,1.74s0,.92.08,1.28.06.66.1.9a4.87,4.87,0,0,0,.13.61v.05h-2.71v-.05a4.33,4.33,0,0,0,.14-.61,8.18,8.18,0,0,0,.1-.9c0-.36.05-.79.07-1.28s0-1.08,0-1.74Zm5.15-3.71a3.34,3.34,0,0,0-.82.1,4.86,4.86,0,0,0-.81.28,4.43,4.43,0,0,0-.78.46,3.92,3.92,0,0,0-.66.63c0,.29,0,.63,0,1s0,.79,0,1.23v6.15a5.31,5.31,0,0,0,.53.32,5,5,0,0,0,.66.28,5.81,5.81,0,0,0,.84.19,6.37,6.37,0,0,0,1,.07,4,4,0,0,0,1.65-.33,3.36,3.36,0,0,0,1.25-.95,4.41,4.41,0,0,0,.78-1.51,6.67,6.67,0,0,0,.28-2,12.35,12.35,0,0,0-.22-2.35,5.81,5.81,0,0,0-.67-1.87,3.43,3.43,0,0,0-1.21-1.24A3.38,3.38,0,0,0,237.62,26.34Z"/><path class="cls-1" d="M250.25,37.54l-4.13-9q-.23-.51-.48-1c-.18-.32-.34-.6-.49-.85s-.29-.46-.41-.63l-.23-.32v0h3.07v.05a.61.61,0,0,0,0,.17c0,.08,0,.15,0,.22a3.11,3.11,0,0,0,.12.8,6.18,6.18,0,0,0,.41,1.09l3.25,7,2.94-6.94c.13-.29.25-.61.38-1a2.9,2.9,0,0,0,.19-1,1.72,1.72,0,0,0,0-.26.44.44,0,0,0-.05-.13v0h2.11v0a4.18,4.18,0,0,0-.53.79,14.72,14.72,0,0,0-.69,1.42l-5.57,13.32c-.12.29-.25.61-.38,1a3,3,0,0,0-.19,1,1.69,1.69,0,0,0,0,.25.44.44,0,0,0,0,.13v0h-2.19v0a3.34,3.34,0,0,0,.54-.78,11.44,11.44,0,0,0,.69-1.4Z"/><path class="cls-1" d="M265,26.46l.33,0,.33,0h.38a5.86,5.86,0,0,0,.82-.07,9.56,9.56,0,0,1,1.33-.08,4.08,4.08,0,0,1,1.38.22,3.05,3.05,0,0,1,1.11.64,2.89,2.89,0,0,1,.73,1,3.4,3.4,0,0,1,.27,1.38,3.68,3.68,0,0,1-.42,1.8,3.52,3.52,0,0,1-1.1,1.23,4.45,4.45,0,0,1-1.6.64,5.75,5.75,0,0,1-1.9,0V34.6c0,.45,0,.83,0,1.16s0,.62.05.86,0,.44.07.6.06.3.09.41v0H265v0c0-.11.06-.25.09-.41a5.91,5.91,0,0,0,.08-.6c0-.24,0-.52,0-.85s0-.72,0-1.16V29.52c0-.44,0-.83,0-1.16s0-.62,0-.86-.05-.44-.08-.61-.06-.29-.09-.4Zm1.66,6.24a3.89,3.89,0,0,0,1.4,0,2.26,2.26,0,0,0,1.09-.48,2.43,2.43,0,0,0,.71-1,4.14,4.14,0,0,0,.25-1.54,4.63,4.63,0,0,0-.13-1.16,2.54,2.54,0,0,0-.4-.88,1.71,1.71,0,0,0-.66-.56,2.06,2.06,0,0,0-.93-.2,4.85,4.85,0,0,0-.58,0L267,27a1.9,1.9,0,0,0-.34.08Z"/><path class="cls-1" d="M282.27,28.16l-.07,0a4.54,4.54,0,0,0-1.47-.9,5.15,5.15,0,0,0-1.88-.33,5,5,0,0,0-1.8.31,3.81,3.81,0,0,0-1.41.89,4.09,4.09,0,0,0-.92,1.44,5.6,5.6,0,0,0-.32,1.94,8,8,0,0,0,.31,2.23,5,5,0,0,0,.94,1.79,4.23,4.23,0,0,0,1.54,1.19,5,5,0,0,0,2.16.43,4.41,4.41,0,0,0,.89-.09,5.08,5.08,0,0,0,.86-.28,4,4,0,0,0,.77-.45,3.73,3.73,0,0,0,.66-.6l.09.06L282,37.41a6.08,6.08,0,0,1-1.29.35,9.75,9.75,0,0,1-1.43.13,7.94,7.94,0,0,1-2.64-.42,6,6,0,0,1-2.06-1.18,5.26,5.26,0,0,1-1.35-1.84,5.75,5.75,0,0,1-.48-2.38,5.78,5.78,0,0,1,.74-2.83,5.84,5.84,0,0,1,.91-1.2,6,6,0,0,1,2.75-1.56,6.82,6.82,0,0,1,1.8-.23,8.22,8.22,0,0,1,2.8.46Z"/><g class="cls-2"><polygon id="Mountain_Icon" data-name="Mountain Icon" class="cls-3" points="0.22 39.96 11.81 20.1 23.39 0.23 29.19 8.67 34.98 17.1 38.41 13.84 41.83 10.57 46.31 17.1 50.78 23.63 55 20.64 59.21 17.65 64.21 28.8 69.22 39.96 34.72 39.96 0.22 39.96"/><path class="cls-4" d="M69.41,40.09H0l.11-.19L23.38,0,35,16.91l6.85-6.53,9,13.08,8.45-6,.06.14Zm-69-.25H69l-9.86-22-8.41,6-8.94-13L35,17.3,23.4.47Z"/></g></g></g></svg>